# xmcd CD database file
#
# Track frame offsets:
#	150
#	17645
#	33687
#	52395
#	71610
#	86167
#	103640
#	114520
#	136657
#	165535
#	187422
#	201565
#	219797
#
# Disc length: 3069 seconds
#
# Revision: 1
# Processed by: cddbd v1.5.1PL2 Copyright (c) Steve Scherf et al.
# Submitted via: CDex 1.70beta1
#
DISCID=c30bfb0d
DTITLE=Gontiti - Gravity Loves Time
DYEAR=1992
DGENRE=Jazz
TTITLE0=I,'m U
TTITLE1=漁夫の利
TTITLE2=Girls love Thrills
TTITLE3=Reverise
TTITLE4=a tempo
TTITLE5=窓辺の三月
TTITLE6=Nadie
TTITLE7=UPC
TTITLE8=Something's all right
TTITLE9=Bio Baiao
TTITLE10=Tea and Cake
TTITLE11=ああなんてやわらかいんだろう
TTITLE12=a tempo(swing version)
EXTD=YEAR: 1992
EXTT0=
EXTT1=
EXTT2=
EXTT3=
EXTT4=
EXTT5=
EXTT6=
EXTT7=
EXTT8=
EXTT9=
EXTT10=
EXTT11=
EXTT12=
PLAYORDER=
